<svg width="127" height="64" viewBox="0 0 127 64" fill="none" xmlns="http://www.w3.org/2000/svg">
<path d="M9.27062 63.7218C8.6545 63.7218 8.11539 63.5856 7.65329 63.3131C7.1912 63.0406 6.82982 62.6644 6.56915 62.1845C6.30848 61.6987 6.17815 61.1389 6.17815 60.505C6.17815 59.8711 6.30848 59.3142 6.56915 58.8343C6.82982 58.3485 7.1912 57.9694 7.65329 57.6968C8.11539 57.4243 8.6545 57.2881 9.27062 57.2881C9.88675 57.2881 10.4259 57.4243 10.888 57.6968C11.35 57.9694 11.7085 58.3485 11.9632 58.8343C12.2239 59.3142 12.3542 59.8711 12.3542 60.505C12.3542 61.1389 12.2239 61.6987 11.9632 62.1845C11.7085 62.6644 11.35 63.0406 10.888 63.3131C10.4259 63.5856 9.88675 63.7218 9.27062 63.7218ZM9.27062 62.8776C9.69717 62.8776 10.0674 62.7828 10.3814 62.5933C10.7013 62.4037 10.9502 62.1312 11.1279 61.7757C11.3056 61.4203 11.3945 60.9967 11.3945 60.505C11.3945 60.0132 11.3056 59.5897 11.1279 59.2342C10.9502 58.8787 10.7013 58.6062 10.3814 58.4166C10.0674 58.2271 9.69717 58.1323 9.27062 58.1323C8.84408 58.1323 8.47085 58.2271 8.15093 58.4166C7.83102 58.6062 7.5822 58.8787 7.40448 59.2342C7.23267 59.5897 7.14677 60.0132 7.14677 60.505C7.14677 60.9967 7.23267 61.4203 7.40448 61.7757C7.5822 62.1312 7.83102 62.4037 8.15093 62.5933C8.47085 62.7828 8.84408 62.8776 9.27062 62.8776Z" fill="#170F49"/>
<path d="M15.1809 63.6152V57.3947H16.1228L19.242 62.0779V57.3947H20.1839V63.6152H19.242L16.1228 58.9321V63.6152H15.1809Z" fill="#170F49"/>
<path d="M23.2238 63.6152V57.3947H27.1782V58.1589H24.1657V60.0962H26.9116V60.8426H24.1657V62.851H27.1782V63.6152H23.2238Z" fill="#170F49"/>
<path d="M36.1468 63.7218C35.6906 63.7218 35.2907 63.6419 34.9471 63.4819C34.6035 63.322 34.3339 63.0939 34.1384 62.7977C33.9489 62.5014 33.8511 62.1489 33.8452 61.7402H34.8405C34.8464 62.0719 34.9619 62.3533 35.187 62.5844C35.4122 62.8154 35.7291 62.931 36.1379 62.931C36.4993 62.931 36.7807 62.845 36.9821 62.6732C37.1894 62.4955 37.2931 62.2704 37.2931 61.9979C37.2931 61.7787 37.2428 61.6009 37.142 61.4647C37.0473 61.3284 36.914 61.2159 36.7422 61.127C36.5763 61.0381 36.3837 60.9582 36.1645 60.8871C35.9453 60.816 35.7143 60.739 35.4714 60.656C34.9915 60.4961 34.6302 60.2887 34.3873 60.034C34.1503 59.7792 34.0318 59.4445 34.0318 59.0298C34.0259 58.6803 34.1059 58.3752 34.2717 58.1145C34.4435 57.8538 34.6805 57.6524 34.9826 57.5102C35.2907 57.3621 35.6491 57.2881 36.0579 57.2881C36.4608 57.2881 36.8132 57.3621 37.1154 57.5102C37.4234 57.6583 37.6634 57.8657 37.8352 58.1323C38.007 58.393 38.0959 58.6981 38.1018 59.0476H37.1065C37.1065 58.8876 37.065 58.7366 36.9821 58.5944C36.8992 58.4463 36.7777 58.3248 36.6177 58.23C36.4578 58.1352 36.2623 58.0879 36.0312 58.0879C35.735 58.0819 35.4892 58.156 35.2937 58.31C35.1041 58.464 35.0093 58.6773 35.0093 58.9498C35.0093 59.1927 35.0804 59.3793 35.2226 59.5097C35.3648 59.64 35.5603 59.7496 35.8091 59.8385C36.0579 59.9214 36.3423 60.0192 36.6622 60.1317C36.9702 60.2324 37.2457 60.3539 37.4886 60.4961C37.7315 60.6383 37.9241 60.8249 38.0662 61.0559C38.2143 61.287 38.2884 61.5802 38.2884 61.9357C38.2884 62.2497 38.2084 62.5429 38.0485 62.8154C37.8885 63.082 37.6486 63.3012 37.3287 63.473C37.0088 63.6389 36.6148 63.7218 36.1468 63.7218Z" fill="#170F49"/>
<path d="M42.4401 63.6152V58.1589H40.6006V57.3947H45.2127V58.1589H43.3821V63.6152H42.4401Z" fill="#170F49"/>
<path d="M50.464 63.7218C49.8479 63.7218 49.3088 63.5856 48.8467 63.3131C48.3846 63.0406 48.0232 62.6644 47.7626 62.1845C47.5019 61.6987 47.3716 61.1389 47.3716 60.505C47.3716 59.8711 47.5019 59.3142 47.7626 58.8343C48.0232 58.3485 48.3846 57.9694 48.8467 57.6968C49.3088 57.4243 49.8479 57.2881 50.464 57.2881C51.0802 57.2881 51.6193 57.4243 52.0814 57.6968C52.5435 57.9694 52.9019 58.3485 53.1566 58.8343C53.4173 59.3142 53.5476 59.8711 53.5476 60.505C53.5476 61.1389 53.4173 61.6987 53.1566 62.1845C52.9019 62.6644 52.5435 63.0406 52.0814 63.3131C51.6193 63.5856 51.0802 63.7218 50.464 63.7218ZM50.464 62.8776C50.8906 62.8776 51.2609 62.7828 51.5748 62.5933C51.8948 62.4037 52.1436 62.1312 52.3213 61.7757C52.499 61.4203 52.5879 60.9967 52.5879 60.505C52.5879 60.0132 52.499 59.5897 52.3213 59.2342C52.1436 58.8787 51.8948 58.6062 51.5748 58.4166C51.2609 58.2271 50.8906 58.1323 50.464 58.1323C50.0375 58.1323 49.6643 58.2271 49.3444 58.4166C49.0244 58.6062 48.7756 58.8787 48.5979 59.2342C48.4261 59.5897 48.3402 60.0132 48.3402 60.505C48.3402 60.9967 48.4261 61.4203 48.5979 61.7757C48.7756 62.1312 49.0244 62.4037 49.3444 62.5933C49.6643 62.7828 50.0375 62.8776 50.464 62.8776Z" fill="#170F49"/>
<path d="M56.3743 63.6152V57.3947H58.5514C59.0372 57.3947 59.4401 57.4777 59.76 57.6435C60.0799 57.8035 60.3169 58.0256 60.4709 58.31C60.6309 58.5885 60.7108 58.9054 60.7108 59.2609C60.7108 59.5985 60.6338 59.9096 60.4798 60.1939C60.3317 60.4724 60.0977 60.6945 59.7778 60.8604C59.4579 61.0263 59.0491 61.1092 58.5514 61.1092H57.3162V63.6152H56.3743ZM57.3162 60.3361H58.507C58.9513 60.3361 59.2683 60.2413 59.4579 60.0518C59.6534 59.8562 59.7511 59.5926 59.7511 59.2609C59.7511 58.9173 59.6534 58.6507 59.4579 58.4611C59.2683 58.2656 58.9513 58.1678 58.507 58.1678H57.3162V60.3361Z" fill="#170F49"/>
<path d="M69.4882 63.7218C69.032 63.7218 68.6321 63.6419 68.2885 63.4819C67.9449 63.322 67.6754 63.0939 67.4799 62.7977C67.2903 62.5014 67.1925 62.1489 67.1866 61.7402H68.1819C68.1878 62.0719 68.3033 62.3533 68.5285 62.5844C68.7536 62.8154 69.0705 62.931 69.4793 62.931C69.8407 62.931 70.1221 62.845 70.3235 62.6732C70.5309 62.4955 70.6346 62.2704 70.6346 61.9979C70.6346 61.7787 70.5842 61.6009 70.4835 61.4647C70.3887 61.3284 70.2554 61.2159 70.0836 61.127C69.9177 61.0381 69.7252 60.9582 69.506 60.8871C69.2868 60.816 69.0557 60.739 68.8128 60.656C68.333 60.4961 67.9716 60.2887 67.7287 60.034C67.4917 59.7792 67.3732 59.4445 67.3732 59.0298C67.3673 58.6803 67.4473 58.3752 67.6132 58.1145C67.785 57.8538 68.0219 57.6524 68.3241 57.5102C68.6321 57.3621 68.9906 57.2881 69.3993 57.2881C69.8022 57.2881 70.1547 57.3621 70.4568 57.5102C70.7649 57.6583 71.0048 57.8657 71.1766 58.1323C71.3484 58.393 71.4373 58.6981 71.4432 59.0476H70.4479C70.4479 58.8876 70.4065 58.7366 70.3235 58.5944C70.2406 58.4463 70.1191 58.3248 69.9592 58.23C69.7992 58.1352 69.6037 58.0879 69.3727 58.0879C69.0765 58.0819 68.8306 58.156 68.6351 58.31C68.4455 58.464 68.3507 58.6773 68.3507 58.9498C68.3507 59.1927 68.4218 59.3793 68.564 59.5097C68.7062 59.64 68.9017 59.7496 69.1505 59.8385C69.3993 59.9214 69.6837 60.0192 70.0036 60.1317C70.3117 60.2324 70.5872 60.3539 70.8301 60.4961C71.073 60.6383 71.2655 60.8249 71.4077 61.0559C71.5558 61.287 71.6298 61.5802 71.6298 61.9357C71.6298 62.2497 71.5498 62.5429 71.3899 62.8154C71.2299 63.082 70.99 63.3012 70.6701 63.473C70.3502 63.6389 69.9562 63.7218 69.4882 63.7218Z" fill="#170F49"/>
<path d="M77.3073 63.7218C76.6911 63.7218 76.152 63.5856 75.6899 63.3131C75.2279 63.0406 74.8665 62.6644 74.6058 62.1845C74.3451 61.6987 74.2148 61.1389 74.2148 60.505C74.2148 59.8711 74.3451 59.3142 74.6058 58.8343C74.8665 58.3485 75.2279 57.9694 75.6899 57.6968C76.152 57.4243 76.6911 57.2881 77.3073 57.2881C77.9234 57.2881 78.4625 57.4243 78.9246 57.6968C79.3867 57.9694 79.7451 58.3485 79.9999 58.8343C80.2605 59.3142 80.3909 59.8711 80.3909 60.505C80.3909 61.1389 80.2605 61.6987 79.9999 62.1845C79.7451 62.6644 79.3867 63.0406 78.9246 63.3131C78.4625 63.5856 77.9234 63.7218 77.3073 63.7218ZM77.3073 62.8776C77.7338 62.8776 78.1041 62.7828 78.4181 62.5933C78.738 62.4037 78.9868 62.1312 79.1645 61.7757C79.3423 61.4203 79.4311 60.9967 79.4311 60.505C79.4311 60.0132 79.3423 59.5897 79.1645 59.2342C78.9868 58.8787 78.738 58.6062 78.4181 58.4166C78.1041 58.2271 77.7338 58.1323 77.3073 58.1323C76.8807 58.1323 76.5075 58.2271 76.1876 58.4166C75.8677 58.6062 75.6189 58.8787 75.4411 59.2342C75.2693 59.5897 75.1834 60.0132 75.1834 60.505C75.1834 60.9967 75.2693 61.4203 75.4411 61.7757C75.6189 62.1312 75.8677 62.4037 76.1876 62.5933C76.5075 62.7828 76.8807 62.8776 77.3073 62.8776Z" fill="#170F49"/>
<path d="M83.2175 63.6152V57.3947H84.1595V62.8687H86.9854V63.6152H83.2175Z" fill="#170F49"/>
<path d="M91.8357 63.7218C91.3914 63.7218 90.9885 63.6359 90.6271 63.4641C90.2717 63.2864 89.9873 63.0169 89.774 62.6555C89.5667 62.2941 89.463 61.835 89.463 61.2781V57.3947H90.405V61.287C90.405 61.832 90.5353 62.2319 90.796 62.4866C91.0566 62.7414 91.4091 62.8687 91.8534 62.8687C92.2918 62.8687 92.6414 62.7414 92.902 62.4866C93.1627 62.2319 93.293 61.832 93.293 61.287V57.3947H94.235V61.2781C94.235 61.835 94.1254 62.2941 93.9062 62.6555C93.6929 63.0169 93.4026 63.2864 93.0353 63.4641C92.674 63.6359 92.2741 63.7218 91.8357 63.7218Z" fill="#170F49"/>
<path d="M98.6779 63.6152V58.1589H96.8385V57.3947H101.451V58.1589H99.6199V63.6152H98.6779Z" fill="#170F49"/>
<path d="M104.109 63.6152V57.3947H105.051V63.6152H104.109Z" fill="#170F49"/>
<path d="M110.961 63.7218C110.345 63.7218 109.806 63.5856 109.344 63.3131C108.882 63.0406 108.52 62.6644 108.26 62.1845C107.999 61.6987 107.869 61.1389 107.869 60.505C107.869 59.8711 107.999 59.3142 108.26 58.8343C108.52 58.3485 108.882 57.9694 109.344 57.6968C109.806 57.4243 110.345 57.2881 110.961 57.2881C111.577 57.2881 112.116 57.4243 112.578 57.6968C113.041 57.9694 113.399 58.3485 113.654 58.8343C113.914 59.3142 114.045 59.8711 114.045 60.505C114.045 61.1389 113.914 61.6987 113.654 62.1845C113.399 62.6644 113.041 63.0406 112.578 63.3131C112.116 63.5856 111.577 63.7218 110.961 63.7218ZM110.961 62.8776C111.388 62.8776 111.758 62.7828 112.072 62.5933C112.392 62.4037 112.641 62.1312 112.818 61.7757C112.996 61.4203 113.085 60.9967 113.085 60.505C113.085 60.0132 112.996 59.5897 112.818 59.2342C112.641 58.8787 112.392 58.6062 112.072 58.4166C111.758 58.2271 111.388 58.1323 110.961 58.1323C110.535 58.1323 110.161 58.2271 109.841 58.4166C109.522 58.6062 109.273 58.8787 109.095 59.2342C108.923 59.5897 108.837 60.0132 108.837 60.505C108.837 60.9967 108.923 61.4203 109.095 61.7757C109.273 62.1312 109.522 62.4037 109.841 62.5933C110.161 62.7828 110.535 62.8776 110.961 62.8776Z" fill="#170F49"/>
<path d="M116.871 63.6152V57.3947H117.813L120.932 62.0779V57.3947H121.874V63.6152H120.932L117.813 58.9321V63.6152H116.871Z" fill="#170F49"/>
<path d="M0.742188 39V0.47583H13.8954C18.4083 0.47583 22.1139 1.283 25.0124 2.89735C27.9476 4.475 30.1123 6.71307 31.5065 9.61156C32.9374 12.4733 33.6528 15.8488 33.6528 19.7379C33.6528 23.627 32.9374 27.0208 31.5065 29.9193C30.1123 32.7811 27.9476 35.0191 25.0124 36.6335C22.1139 38.2111 18.4083 39 13.8954 39H0.742188ZM7.7866 32.9462H13.5652C16.7939 32.9462 19.3438 32.4325 21.215 31.4052C23.0862 30.3412 24.4254 28.8369 25.2325 26.8924C26.0397 24.9111 26.4433 22.5263 26.4433 19.7379C26.4433 16.9862 26.0397 14.6197 25.2325 12.6385C24.4254 10.6572 23.0862 9.13459 21.215 8.07059C19.3438 7.00659 16.7939 6.47459 13.5652 6.47459H7.7866V32.9462Z" fill="url(#paint0_linear_698_232)"/>
<path d="M49.1141 39.6604C46.7659 39.6604 44.8397 39.2935 43.3354 38.5597C41.8312 37.7892 40.7121 36.7802 39.9783 35.5328C39.2445 34.2854 38.8776 32.9095 38.8776 31.4052C38.8776 28.8736 39.8683 26.819 41.8495 25.2414C43.8308 23.6637 46.8026 22.8749 50.7651 22.8749H57.6994V22.2145C57.6994 20.3433 57.1674 18.9674 56.1034 18.0869C55.0394 17.2063 53.7186 16.766 52.141 16.766C50.7101 16.766 49.4626 17.1146 48.3986 17.8117C47.3346 18.4721 46.6742 19.4627 46.4174 20.7836H39.5381C39.7215 18.8023 40.3819 17.0779 41.5193 15.6103C42.6934 14.1427 44.1976 13.0237 46.0321 12.2532C47.8666 11.446 49.9212 11.0425 52.196 11.0425C56.0851 11.0425 59.1487 12.0147 61.3868 13.9593C63.6248 15.9038 64.7439 18.6556 64.7439 22.2145V39H58.7451L58.0847 34.5972C57.2775 36.0648 56.1401 37.2756 54.6725 38.2295C53.2416 39.1834 51.3888 39.6604 49.1141 39.6604ZM50.7101 34.1569C52.728 34.1569 54.2873 33.4965 55.388 32.1757C56.5254 30.8549 57.2408 29.2222 57.5343 27.2776H51.5356C49.6644 27.2776 48.3252 27.6262 47.5181 28.3233C46.7109 28.9837 46.3073 29.8092 46.3073 30.7998C46.3073 31.8638 46.7109 32.6894 47.5181 33.2764C48.3252 33.8634 49.3892 34.1569 50.7101 34.1569Z" fill="url(#paint1_linear_698_232)"/>
<path d="M73.9647 51.1076L80.2937 37.1838H78.6426L68.021 11.7029H75.6708L83.3206 30.9099L91.3006 11.7029H98.7853L81.4494 51.1076H73.9647Z" fill="url(#paint2_linear_698_232)"/>
<path d="M110.652 39.6604C108.304 39.6604 106.377 39.2935 104.873 38.5597C103.369 37.7892 102.25 36.7802 101.516 35.5328C100.782 34.2854 100.415 32.9095 100.415 31.4052C100.415 28.8736 101.406 26.819 103.387 25.2414C105.368 23.6637 108.34 22.8749 112.303 22.8749H119.237V22.2145C119.237 20.3433 118.705 18.9674 117.641 18.0869C116.577 17.2063 115.256 16.766 113.679 16.766C112.248 16.766 111 17.1146 109.936 17.8117C108.872 18.4721 108.212 19.4627 107.955 20.7836H101.076C101.259 18.8023 101.92 17.0779 103.057 15.6103C104.231 14.1427 105.735 13.0237 107.57 12.2532C109.404 11.446 111.459 11.0425 113.734 11.0425C117.623 11.0425 120.686 12.0147 122.924 13.9593C125.162 15.9038 126.281 18.6556 126.281 22.2145V39H120.283L119.622 34.5972C118.815 36.0648 117.678 37.2756 116.21 38.2295C114.779 39.1834 112.926 39.6604 110.652 39.6604ZM112.248 34.1569C114.266 34.1569 115.825 33.4965 116.926 32.1757C118.063 30.8549 118.778 29.2222 119.072 27.2776H113.073C111.202 27.2776 109.863 27.6262 109.056 28.3233C108.248 28.9837 107.845 29.8092 107.845 30.7998C107.845 31.8638 108.248 32.6894 109.056 33.2764C109.863 33.8634 110.927 34.1569 112.248 34.1569Z" fill="url(#paint3_linear_698_232)"/>
<defs>
<linearGradient id="paint0_linear_698_232" x1="63.5" y1="-16" x2="63.5" y2="56" gradientUnits="userSpaceOnUse">
<stop stop-color="#3E13FD"/>
<stop offset="1" stop-color="#9A85F8"/>
</linearGradient>
<linearGradient id="paint1_linear_698_232" x1="63.5" y1="-16" x2="63.5" y2="56" gradientUnits="userSpaceOnUse">
<stop stop-color="#3E13FD"/>
<stop offset="1" stop-color="#9A85F8"/>
</linearGradient>
<linearGradient id="paint2_linear_698_232" x1="63.5" y1="-16" x2="63.5" y2="56" gradientUnits="userSpaceOnUse">
<stop stop-color="#3E13FD"/>
<stop offset="1" stop-color="#9A85F8"/>
</linearGradient>
<linearGradient id="paint3_linear_698_232" x1="63.5" y1="-16" x2="63.5" y2="56" gradientUnits="userSpaceOnUse">
<stop stop-color="#3E13FD"/>
<stop offset="1" stop-color="#9A85F8"/>
</linearGradient>
</defs>
</svg>
