<svg width="132" height="49" viewBox="0 0 132 49" fill="none" xmlns="http://www.w3.org/2000/svg">
<g clip-path="url(#clip0_580_2727)">
<path d="M59.9159 5.1905C59.3032 5.18223 58.6977 5.27486 58.1366 5.47634C57.0144 5.87931 56.1417 6.63723 55.4677 7.48535C52.7716 10.8778 52.0088 16.1831 50.9052 20.9562C50.3533 23.3428 49.7813 25.5698 49.1533 27.1215C48.5254 28.6732 47.831 29.2407 47.8224 29.2433C47.8181 29.2447 47.8274 29.3008 47.4749 29.1393C47.1224 28.9778 46.4939 28.5461 45.7095 27.7331C44.1405 26.1069 41.9702 23.0228 39.2737 18.184C38.9863 17.6684 38.5059 17.288 37.9381 17.1266C37.3703 16.9652 36.7617 17.0359 36.246 17.3233C35.9907 17.4656 35.7659 17.6567 35.5845 17.8859C35.403 18.115 35.2685 18.3777 35.1886 18.6588C35.1086 18.94 35.0848 19.2341 35.1186 19.5244C35.1523 19.8148 35.2429 20.0956 35.3852 20.351C38.1784 25.3633 40.4421 28.6847 42.5059 30.8238C43.5378 31.8934 44.5254 32.6844 45.6205 33.1862C46.7156 33.688 48.004 33.848 49.1421 33.4947C51.4183 32.7881 52.462 30.812 53.2797 28.7913C54.0974 26.7707 54.6786 24.3965 55.2422 21.959C56.3694 17.0841 57.6857 11.8491 58.9527 10.2549C59.2694 9.85633 59.5052 9.71464 59.6411 9.66583C59.7771 9.61702 59.8846 9.58054 60.2946 9.72104C61.1145 10.002 62.9215 11.3246 65.2409 14.3089C65.6032 14.775 66.1357 15.0781 66.7214 15.1515C67.3072 15.225 67.8981 15.0627 68.3641 14.7005C68.5949 14.5211 68.7881 14.298 68.9327 14.044C69.0773 13.79 69.1704 13.51 69.2068 13.22C69.2432 12.9299 69.222 12.6356 69.1446 12.3537C69.0672 12.0719 68.9351 11.808 68.7557 11.5772C66.1921 8.27864 64.0957 6.31804 61.7377 5.50995C61.1482 5.30793 60.5285 5.19878 59.9159 5.1905Z" fill="url(#paint0_linear_580_2727)"/>
<path d="M99.8199 5.00245C99.6624 5.00695 99.5044 5.01767 99.346 5.03481C96.8115 5.30901 94.759 6.98435 92.9581 9.27844C91.1572 11.5725 89.5124 14.6299 87.891 18.3849L87.882 18.406L87.8733 18.4273C85.9614 23.1194 84.1574 26.1103 82.7151 27.6372C81.2728 29.1642 80.6076 29.2336 79.8221 29.0255C79.0365 28.8174 77.7374 27.8235 76.3725 25.9314C75.0076 24.0392 73.5837 21.3777 72.1753 18.3328C71.9275 17.797 71.477 17.3817 70.9229 17.1781C70.3689 16.9745 69.7566 16.9993 69.2208 17.2471C68.6851 17.4949 68.2697 17.9454 68.0661 18.4994C67.8624 19.0535 67.8873 19.6658 68.135 20.2015C69.6048 23.3791 71.1086 26.2432 72.7622 28.5356C74.4159 30.8281 76.2262 32.6779 78.6821 33.3285C81.1381 33.9791 83.8465 32.9222 85.9512 30.694C88.0497 28.4723 89.9612 25.0907 91.9778 20.1495C93.5091 16.603 95.0454 13.8286 96.4596 12.0272C97.8737 10.2258 99.0704 9.5421 99.8248 9.46048C100.579 9.37886 101.479 9.66062 102.895 11.3048C104.311 12.9489 105.962 15.8583 107.646 20.0899L107.658 20.1214L107.672 20.1524C108.733 22.6006 109.93 25.2278 111.35 27.5278C112.769 29.8278 114.369 31.8907 116.713 32.9536C119.056 34.0164 122.095 33.4627 124.488 31.3244C126.882 29.1861 129.101 25.6713 131.529 20.1654C131.647 19.898 131.711 19.6099 131.718 19.3177C131.725 19.0255 131.674 18.7348 131.568 18.4623C131.462 18.1898 131.304 17.9408 131.102 17.7294C130.9 17.5181 130.659 17.3486 130.391 17.2307C130.124 17.1127 129.836 17.0486 129.543 17.042C129.251 17.0354 128.961 17.0864 128.688 17.1921C128.416 17.2978 128.167 17.4561 127.955 17.658C127.744 17.86 127.574 18.1016 127.456 18.369C125.161 23.5745 123.069 26.6238 121.523 28.0046C119.977 29.3855 119.447 29.3059 118.551 28.8995C117.655 28.4932 116.344 27.1437 115.138 25.1899C113.934 23.2387 112.793 20.7747 111.76 18.3912C109.98 13.9264 108.218 10.6638 106.268 8.39969C104.432 6.26834 102.182 4.93488 99.8199 5.00245Z" fill="url(#paint1_linear_580_2727)"/>
<path d="M25.7956 5.1905C25.1829 5.18223 24.5774 5.27486 24.0163 5.47634C22.8941 5.87931 22.0214 6.63723 21.3474 7.48535C18.6513 10.8778 17.8885 16.1831 16.7849 20.9562C16.233 23.3428 15.6609 25.5698 15.033 27.1215C14.4051 28.6732 13.7107 29.2407 13.7021 29.2433C13.6978 29.2447 13.707 29.3008 13.3546 29.1393C13.0021 28.9778 12.3736 28.5461 11.5892 27.7331C10.0202 26.1069 7.84986 23.0228 5.1534 18.184C4.86604 17.6684 4.38561 17.288 3.81781 17.1266C3.25001 16.9652 2.64135 17.0359 2.12572 17.3233C1.87039 17.4656 1.64558 17.6567 1.46414 17.8859C1.2827 18.115 1.14817 18.3777 1.06824 18.6588C0.988303 18.94 0.96454 19.2341 0.99828 19.5244C1.03202 19.8148 1.12261 20.0956 1.26489 20.351C4.05809 25.3633 6.3218 28.6847 8.38562 30.8238C9.41753 31.8934 10.4051 32.6844 11.5002 33.1862C12.5953 33.688 13.8837 33.848 15.0218 33.4947C17.298 32.7881 18.3417 30.812 19.1594 28.7913C19.9771 26.7707 20.5583 24.3965 21.1219 21.959C22.2491 17.0841 23.5654 11.8491 24.8324 10.2549C25.1491 9.85633 25.3848 9.71464 25.5208 9.66583C25.6567 9.61702 25.7643 9.58054 26.1743 9.72104C26.9942 10.002 28.8012 11.3246 31.1206 14.3089C31.4829 14.775 32.0154 15.0781 32.6011 15.1515C33.1868 15.225 33.7778 15.0627 34.2438 14.7005C34.7099 14.3382 35.013 13.8056 35.0864 13.2199C35.1598 12.6342 34.9976 12.0433 34.6353 11.5772C32.0717 8.27864 29.9754 6.31804 27.6174 5.50995C27.0279 5.30793 26.4082 5.19878 25.7956 5.1905Z" fill="url(#paint2_linear_580_2727)"/>
</g>
<path d="M2.2837 48.0358C1.89552 48.0358 1.55523 47.9678 1.26284 47.8316C0.970445 47.6955 0.741067 47.5014 0.574705 47.2494C0.413384 46.9973 0.330203 46.6974 0.325162 46.3495H1.1721C1.17714 46.6318 1.27544 46.8713 1.46701 47.0679C1.65858 47.2645 1.92829 47.3628 2.27613 47.3628C2.58365 47.3628 2.82311 47.2897 2.99452 47.1435C3.17096 46.9923 3.25918 46.8007 3.25918 46.5688C3.25918 46.3823 3.21633 46.231 3.13063 46.1151C3.04997 45.9991 2.93654 45.9034 2.79034 45.8277C2.64919 45.7521 2.48535 45.6841 2.29882 45.6236C2.11229 45.5631 1.91568 45.4975 1.70899 45.427C1.30065 45.2908 0.993131 45.1144 0.786438 44.8976C0.584788 44.6808 0.483962 44.396 0.483962 44.0431C0.478921 43.7457 0.546978 43.4861 0.688134 43.2642C0.834331 43.0424 1.03598 42.871 1.29309 42.75C1.55523 42.624 1.86023 42.561 2.20808 42.561C2.55088 42.561 2.85084 42.624 3.10794 42.75C3.37009 42.8761 3.57426 43.0525 3.72046 43.2794C3.86666 43.5012 3.94228 43.7608 3.94732 44.0582H3.10038C3.10038 43.9221 3.06509 43.7936 2.99452 43.6726C2.92394 43.5466 2.82059 43.4432 2.68448 43.3626C2.54836 43.2819 2.382 43.2416 2.18539 43.2416C1.93333 43.2365 1.72412 43.2995 1.55775 43.4306C1.39643 43.5617 1.31577 43.7432 1.31577 43.9751C1.31577 44.1818 1.37627 44.3406 1.49726 44.4515C1.61825 44.5624 1.78461 44.6556 1.99634 44.7313C2.20808 44.8018 2.45006 44.885 2.72229 44.9808C2.98443 45.0665 3.21885 45.1698 3.42554 45.2908C3.63224 45.4118 3.79608 45.5706 3.91707 45.7672C4.0431 45.9638 4.10612 46.2134 4.10612 46.5159C4.10612 46.7831 4.03806 47.0326 3.90194 47.2645C3.76583 47.4914 3.56166 47.6779 3.28943 47.8241C3.0172 47.9652 2.68196 48.0358 2.2837 48.0358ZM11.9621 48.0358C11.4378 48.0358 10.9791 47.9199 10.5858 47.688C10.1926 47.4561 9.88511 47.1359 9.66329 46.7276C9.44148 46.3142 9.33057 45.8378 9.33057 45.2984C9.33057 44.759 9.44148 44.2851 9.66329 43.8768C9.88511 43.4634 10.1926 43.1407 10.5858 42.9088C10.9791 42.6769 11.4378 42.561 11.9621 42.561C12.4864 42.561 12.9452 42.6769 13.3384 42.9088C13.7316 43.1407 14.0366 43.4634 14.2534 43.8768C14.4752 44.2851 14.5861 44.759 14.5861 45.2984C14.5861 45.8378 14.4752 46.3142 14.2534 46.7276C14.0366 47.1359 13.7316 47.4561 13.3384 47.688C12.9452 47.9199 12.4864 48.0358 11.9621 48.0358ZM11.9621 47.3174C12.3251 47.3174 12.6402 47.2368 12.9074 47.0754C13.1796 46.9141 13.3913 46.6822 13.5426 46.3798C13.6938 46.0773 13.7694 45.7168 13.7694 45.2984C13.7694 44.88 13.6938 44.5195 13.5426 44.217C13.3913 43.9146 13.1796 43.6827 12.9074 43.5214C12.6402 43.36 12.3251 43.2794 11.9621 43.2794C11.5991 43.2794 11.2815 43.36 11.0093 43.5214C10.7371 43.6827 10.5253 43.9146 10.3741 44.217C10.2279 44.5195 10.1548 44.88 10.1548 45.2984C10.1548 45.7168 10.2279 46.0773 10.3741 46.3798C10.5253 46.6822 10.7371 46.9141 11.0093 47.0754C11.2815 47.2368 11.5991 47.3174 11.9621 47.3174ZM20.0162 47.9451V42.6517H23.3359V43.3021H20.8178V44.9732H22.9048V45.616H20.8178V47.9451H20.0162ZM29.8994 47.9451V43.3021H28.3341V42.6517H32.2587V43.3021H30.7009V47.9451H29.8994ZM45.7351 48.0358C45.347 48.0358 45.0067 47.9678 44.7143 47.8316C44.4219 47.6955 44.1925 47.5014 44.0261 47.2494C43.8648 46.9973 43.7816 46.6974 43.7766 46.3495H44.6235C44.6286 46.6318 44.7269 46.8713 44.9184 47.0679C45.11 47.2645 45.3797 47.3628 45.7276 47.3628C46.0351 47.3628 46.2745 47.2897 46.446 47.1435C46.6224 46.9923 46.7106 46.8007 46.7106 46.5688C46.7106 46.3823 46.6678 46.231 46.5821 46.1151C46.5014 45.9991 46.388 45.9034 46.2418 45.8277C46.1006 45.7521 45.9368 45.6841 45.7503 45.6236C45.5637 45.5631 45.3671 45.4975 45.1604 45.427C44.7521 45.2908 44.4446 45.1144 44.2379 44.8976C44.0362 44.6808 43.9354 44.396 43.9354 44.0431C43.9304 43.7457 43.9984 43.4861 44.1396 43.2642C44.2858 43.0424 44.4874 42.871 44.7445 42.75C45.0067 42.624 45.3117 42.561 45.6595 42.561C46.0023 42.561 46.3023 42.624 46.5594 42.75C46.8215 42.8761 47.0257 43.0525 47.1719 43.2794C47.3181 43.5012 47.3937 43.7608 47.3988 44.0582H46.5518C46.5518 43.9221 46.5165 43.7936 46.446 43.6726C46.3754 43.5466 46.272 43.4432 46.1359 43.3626C45.9998 43.2819 45.8334 43.2416 45.6368 43.2416C45.3848 43.2365 45.1756 43.2995 45.0092 43.4306C44.8479 43.5617 44.7672 43.7432 44.7672 43.9751C44.7672 44.1818 44.8277 44.3406 44.9487 44.4515C45.0697 44.5624 45.236 44.6556 45.4478 44.7313C45.6595 44.8018 45.9015 44.885 46.1737 44.9808C46.4359 45.0665 46.6703 45.1698 46.877 45.2908C47.0837 45.4118 47.2475 45.5706 47.3685 45.7672C47.4945 45.9638 47.5576 46.2134 47.5576 46.5159C47.5576 46.7831 47.4895 47.0326 47.3534 47.2645C47.2173 47.4914 47.0131 47.6779 46.7409 47.8241C46.4686 47.9652 46.1334 48.0358 45.7351 48.0358ZM52.9711 47.9451V42.6517H56.3361V43.3021H53.7726V44.9506H56.1092V45.5858H53.7726V47.2947H56.3361V47.9451H52.9711ZM61.8282 47.9451V42.6517H63.6507C64.0691 42.6517 64.4119 42.7223 64.6791 42.8635C64.9513 43.0046 65.153 43.1962 65.284 43.4382C65.4151 43.6751 65.4806 43.9398 65.4806 44.2322C65.4806 44.5599 65.3924 44.8573 65.216 45.1245C65.0446 45.3917 64.7749 45.5832 64.4068 45.6992L65.5336 47.9451H64.6035L63.575 45.8126H62.6298V47.9451H61.8282ZM62.6298 45.2077H63.6053C63.9683 45.2077 64.2329 45.1194 64.3993 44.943C64.5707 44.7665 64.6564 44.5372 64.6564 44.2549C64.6564 43.9725 64.5732 43.7482 64.4068 43.5818C64.2405 43.4104 63.9708 43.3247 63.5977 43.3247H62.6298V45.2077ZM72.332 47.9451L70.3734 42.6517H71.2279L72.8159 47.1133L74.4115 42.6517H75.2584L73.2999 47.9451H72.332ZM80.4731 47.9451V42.6517H83.8381V43.3021H81.2746V44.9506H83.6113V45.5858H81.2746V47.2947H83.8381V47.9451H80.4731ZM89.3302 47.9451V42.6517H91.0468C91.6669 42.6517 92.176 42.7601 92.5743 42.9769C92.9776 43.1937 93.275 43.5012 93.4666 43.8994C93.6632 44.2927 93.7615 44.7615 93.7615 45.306C93.7615 45.8454 93.6632 46.3142 93.4666 46.7125C93.275 47.1057 92.9776 47.4107 92.5743 47.6275C92.176 47.8392 91.6669 47.9451 91.0468 47.9451H89.3302ZM90.1318 47.2645H91.0165C91.4955 47.2645 91.8736 47.1864 92.1508 47.0301C92.4331 46.8738 92.6348 46.6495 92.7558 46.3571C92.8818 46.0647 92.9448 45.7143 92.9448 45.306C92.9448 44.8976 92.8818 44.5447 92.7558 44.2473C92.6348 43.9499 92.4331 43.723 92.1508 43.5667C91.8736 43.4054 91.4955 43.3247 91.0165 43.3247H90.1318V47.2645ZM106.708 47.9526L105.279 42.6517H106.141L107.192 47.0376L108.402 42.6517H109.287L110.459 47.0376L111.51 42.6517H112.372L110.92 47.9451H109.982L108.825 43.7936L107.631 47.9451L106.708 47.9526ZM117.645 47.9451V42.6517H121.01V43.3021H118.446V44.9506H120.783V45.5858H118.446V47.2947H121.01V47.9451H117.645ZM126.502 47.9451V42.6517H128.498C129.048 42.6517 129.463 42.7803 129.746 43.0374C130.028 43.2945 130.169 43.6171 130.169 44.0053C130.169 44.3431 130.079 44.6128 129.897 44.8144C129.716 45.011 129.496 45.1446 129.239 45.2152C129.441 45.2555 129.62 45.3362 129.776 45.4572C129.937 45.5782 130.063 45.7294 130.154 45.9109C130.245 46.0924 130.29 46.289 130.29 46.5007C130.29 46.773 130.222 47.02 130.086 47.2418C129.955 47.4586 129.761 47.63 129.504 47.756C129.247 47.8821 128.932 47.9451 128.559 47.9451H126.502ZM127.303 44.9203H128.4C128.707 44.9203 128.942 44.8497 129.103 44.7086C129.264 44.5624 129.345 44.3632 129.345 44.1112C129.345 43.8642 129.264 43.6675 129.103 43.5214C128.947 43.3752 128.707 43.3021 128.385 43.3021H127.303V44.9203ZM127.303 47.2872H128.453C128.775 47.2872 129.025 47.2116 129.201 47.0603C129.383 46.9091 129.474 46.6974 129.474 46.4251C129.474 46.1529 129.38 45.9386 129.194 45.7824C129.007 45.621 128.755 45.5404 128.438 45.5404H127.303V47.2872Z" fill="#170F49"/>
<defs>
<linearGradient id="paint0_linear_580_2727" x1="66.351" y1="5" x2="66.351" y2="33.6847" gradientUnits="userSpaceOnUse">
<stop stop-color="#2F00FF"/>
<stop offset="1" stop-color="#5835F3" stop-opacity="0.68"/>
</linearGradient>
<linearGradient id="paint1_linear_580_2727" x1="66.351" y1="5" x2="66.351" y2="33.6847" gradientUnits="userSpaceOnUse">
<stop stop-color="#2F00FF"/>
<stop offset="1" stop-color="#5835F3" stop-opacity="0.68"/>
</linearGradient>
<linearGradient id="paint2_linear_580_2727" x1="66.351" y1="5" x2="66.351" y2="33.6847" gradientUnits="userSpaceOnUse">
<stop stop-color="#2F00FF"/>
<stop offset="1" stop-color="#5835F3" stop-opacity="0.68"/>
</linearGradient>
<clipPath id="clip0_580_2727">
<rect width="130.735" height="28.6847" fill="white" transform="translate(0.983398 5)"/>
</clipPath>
</defs>
</svg>
